<svg width="26" height="26" viewBox="0 0 26 26" fill="none" xmlns="http://www.w3.org/2000/svg">
<path d="M11.7 19.825C11.7 19.394 11.8712 18.9806 12.1759 18.6759C12.4806 18.3712 12.894 18.2 13.325 18.2C13.7559 18.2 14.1693 18.3712 14.474 18.6759C14.7787 18.9806 14.95 19.394 14.95 19.825C14.95 20.2559 14.7787 20.6693 14.474 20.974C14.1693 21.2787 13.7559 21.45 13.325 21.45C12.894 21.45 12.4806 21.2787 12.1759 20.974C11.8712 20.6693 11.7 20.2559 11.7 19.825ZM11.7 13.325C11.7 12.894 11.8712 12.4806 12.1759 12.1759C12.4806 11.8712 12.894 11.7 13.325 11.7C13.7559 11.7 14.1693 11.8712 14.474 12.1759C14.7787 12.4806 14.95 12.894 14.95 13.325C14.95 13.7559 14.7787 14.1693 14.474 14.474C14.1693 14.7787 13.7559 14.95 13.325 14.95C12.894 14.95 12.4806 14.7787 12.1759 14.474C11.8712 14.1693 11.7 13.7559 11.7 13.325ZM11.7 6.82495C11.7 6.39397 11.8712 5.98065 12.1759 5.6759C12.4806 5.37116 12.894 5.19995 13.325 5.19995C13.7559 5.19995 14.1693 5.37116 14.474 5.6759C14.7787 5.98065 14.95 6.39397 14.95 6.82495C14.95 7.25593 14.7787 7.66925 14.474 7.974C14.1693 8.27875 13.7559 8.44995 13.325 8.44995C12.894 8.44995 12.4806 8.27875 12.1759 7.974C11.8712 7.66925 11.7 7.25593 11.7 6.82495Z" fill="black"/>
</svg>
