<svg width="22" height="23" viewBox="0 0 22 23" fill="none" stroke="#B1B1B1" xmlns="http://www.w3.org/2000/svg">
<path d="M21 18.25V11.315C21 10.6475 21 10.3138 20.9187 10.0025C20.8468 9.72739 20.7285 9.46656 20.5688 9.23127C20.3875 8.96502 20.1375 8.74377 19.6337 8.30502L13.6338 3.05502C12.7013 2.23877 12.2338 1.83002 11.7088 1.67502C11.2463 1.53752 10.7537 1.53752 10.29 1.67502C9.765 1.83002 9.3 2.23752 8.3675 3.05252L2.36625 8.30502C1.86375 8.74502 1.6125 8.96503 1.4325 9.23003C1.27225 9.46563 1.15346 9.72689 1.08125 10.0025C1 10.3125 1 10.6475 1 11.315V18.25C1 19.415 1 19.9975 1.19 20.4563C1.3155 20.7597 1.49953 21.0354 1.7316 21.2677C1.96366 21.5 2.23921 21.6842 2.5425 21.81C3.0025 22 3.585 22 4.75 22C5.915 22 6.4975 22 6.9575 21.81C7.26079 21.6842 7.53634 21.5 7.7684 21.2677C8.00047 21.0354 8.1845 20.7597 8.31 20.4563C8.5 19.9975 8.5 19.415 8.5 18.25V17C8.5 16.337 8.76339 15.7011 9.23223 15.2323C9.70107 14.7634 10.337 14.5 11 14.5C11.663 14.5 12.2989 14.7634 12.7678 15.2323C13.2366 15.7011 13.5 16.337 13.5 17V18.25C13.5 19.415 13.5 19.9975 13.69 20.4563C13.8155 20.7597 13.9995 21.0354 14.2316 21.2677C14.4637 21.5 14.7392 21.6842 15.0425 21.81C15.5025 22 16.085 22 17.25 22C18.415 22 18.9975 22 19.4575 21.81C19.7608 21.6842 20.0363 21.5 20.2684 21.2677C20.5005 21.0354 20.6845 20.7597 20.81 20.4563C21 19.9975 21 19.415 21 18.25Z"  stroke-width="2" stroke-linecap="round" stroke-linejoin="round"/>
</svg>
