<svg width="50" height="27" viewBox="0 0 50 27" fill="none" xmlns="http://www.w3.org/2000/svg">
<path d="M22.6343 5.09H17.8743C18.917 5.294 19.7783 5.74733 20.4583 6.45C21.1383 7.13 21.4783 8.05933 21.4783 9.238C21.4783 9.918 21.3537 10.5413 21.1043 11.108C20.855 11.652 20.5037 12.128 20.0503 12.536C19.6197 12.944 19.1097 13.2727 18.5203 13.522C17.931 13.7487 17.3077 13.862 16.6503 13.862H14.2703V15.732H23.6543V19.098H5.97434V23.076H22.3623V26.782H2.09834V19.098H0.262344V15.732H9.91834V13.862H7.26634C6.60901 13.862 5.98568 13.76 5.39634 13.556C4.80701 13.352 4.28568 13.0573 3.83234 12.672C3.40168 12.264 3.06168 11.7767 2.81234 11.21C2.56301 10.6433 2.43834 9.986 2.43834 9.238C2.43834 8.05933 2.77834 7.13 3.45834 6.45C4.13834 5.74733 4.99968 5.294 6.04234 5.09H1.24834V2.064H9.91834V0.125999H13.9643V2.064H22.6343V5.09ZM7.57234 7.674C7.14168 7.674 6.79034 7.81 6.51834 8.082C6.26901 8.33133 6.14434 8.71667 6.14434 9.238C6.14434 9.714 6.30301 10.0767 6.62034 10.326C6.93768 10.5527 7.25501 10.666 7.57234 10.666H16.3443C16.7297 10.666 17.0583 10.5527 17.3303 10.326C17.625 10.0767 17.7723 9.714 17.7723 9.238C17.7723 8.762 17.659 8.388 17.4323 8.116C17.2283 7.82133 16.8657 7.674 16.3443 7.674H7.57234ZM33.636 13.76V11.244H37.58V13.76H42.918L43.496 9.952H28.196V6.62H44.006L44.312 4.784H28.196V1.18H48.052V4.784L46.692 13.76H49.752V16.99H26.36V13.76H33.636ZM48.29 21.988L47.236 26.782H43.19L44.244 21.988H27.822V18.792H48.29V21.988Z" fill="white"/>
</svg>
