<svg width="16" height="16" viewBox="0 0 16 16" fill="none" xmlns="http://www.w3.org/2000/svg">
<path d="M13.5667 5.94865L13.3227 5.81265C13.1079 5.70207 12.9273 5.53524 12.8 5.32998C12.7887 5.31198 12.778 5.29265 12.7567 5.25532C12.613 5.02457 12.5432 4.75546 12.5567 4.48398L12.5607 4.20065C12.5687 3.74732 12.5727 3.51932 12.5087 3.31532C12.4521 3.13379 12.3573 2.96649 12.2307 2.82465C12.088 2.66465 11.89 2.54998 11.4933 2.32198L11.164 2.13198C10.7693 1.90465 10.5713 1.79065 10.3613 1.74732C10.1758 1.7089 9.9842 1.71049 9.79933 1.75198C9.59066 1.79865 9.39533 1.91598 9.00533 2.14932L9.00333 2.15065L8.76733 2.29132C8.72999 2.31398 8.71066 2.32465 8.69199 2.33532C8.50666 2.43865 8.29999 2.49532 8.08733 2.50198C8.06599 2.50332 8.04399 2.50332 8.00066 2.50332L7.91399 2.50265C7.70125 2.49595 7.49321 2.43834 7.30733 2.33465C7.28866 2.32465 7.27066 2.31332 7.23333 2.29065L6.99533 2.14798C6.60266 1.91198 6.40599 1.79465 6.19599 1.74732C6.01043 1.70574 5.81812 1.70437 5.63199 1.74332C5.42133 1.78732 5.22399 1.90198 4.82866 2.13132L4.82666 2.13198L4.50133 2.32065L4.49799 2.32332C4.10599 2.54998 3.90933 2.66465 3.76799 2.82398C3.64204 2.96558 3.54773 3.1324 3.49133 3.31332C3.42799 3.51798 3.43133 3.74598 3.43933 4.20198L3.44399 4.48465C3.44399 4.52798 3.44599 4.54932 3.44533 4.56998C3.44181 4.81219 3.37244 5.04887 3.24466 5.25465C3.22266 5.29198 3.21266 5.31065 3.20133 5.32798C3.08892 5.50943 2.93459 5.66124 2.75133 5.77065L2.67666 5.81265L2.43599 5.94598C2.03466 6.16798 1.83399 6.27932 1.68866 6.43798C1.55945 6.57787 1.4617 6.74382 1.40199 6.92465C1.33533 7.12932 1.33533 7.35798 1.33599 7.81665L1.33733 8.19198C1.33799 8.64732 1.33933 8.87465 1.40666 9.07798C1.46612 9.25769 1.56316 9.42269 1.69133 9.56198C1.83666 9.71932 2.03533 9.82998 2.43333 10.0513L2.67199 10.184C2.71266 10.2066 2.73333 10.2173 2.75266 10.2293C2.96157 10.3546 3.13219 10.5346 3.24599 10.75L3.29066 10.83C3.40327 11.0426 3.45625 11.2817 3.44399 11.522L3.43933 11.7933C3.43133 12.2506 3.42799 12.48 3.49199 12.6846C3.54866 12.866 3.64333 13.0333 3.76999 13.1753C3.91266 13.3353 4.11133 13.4493 4.50733 13.678L4.83666 13.868C5.23199 14.0953 5.42933 14.2093 5.63933 14.2526C5.82486 14.291 6.01645 14.2895 6.20133 14.248C6.41066 14.2013 6.60599 14.084 6.99733 13.8493L7.23333 13.708C7.4366 13.5771 7.67168 13.504 7.91333 13.4966H8.08666C8.29866 13.5033 8.50666 13.5613 8.69333 13.6646L8.75466 13.7013L9.00533 13.852C9.39866 14.088 9.59466 14.2053 9.80466 14.252C9.99013 14.294 10.1824 14.2958 10.3687 14.2573C10.5787 14.2133 10.7773 14.098 11.1727 13.8686L11.5027 13.6773C11.8947 13.4493 12.0913 13.3353 12.2327 13.176C12.3593 13.034 12.4527 12.8673 12.5093 12.6866C12.5727 12.4833 12.5693 12.2573 12.5613 11.808L12.556 11.5146C12.5428 11.2436 12.6125 10.975 12.756 10.7446L12.7993 10.6713C12.9117 10.4899 13.0661 10.3381 13.2493 10.2286L13.3227 10.188L13.324 10.1873L13.5647 10.054C13.966 9.83132 14.1667 9.72065 14.3127 9.56198C14.442 9.42198 14.5393 9.25532 14.5987 9.07532C14.6653 8.87198 14.6653 8.64398 14.664 8.19065L14.6627 7.80798C14.662 7.35265 14.6613 7.12465 14.594 6.92132C14.5342 6.7418 14.437 6.57705 14.3087 6.43798C14.164 6.28065 13.9653 6.16998 13.568 5.94932L13.5667 5.94865Z" fill="#313131"/>
<path d="M5.33331 7.99992C5.33331 8.70716 5.61426 9.38544 6.11436 9.88554C6.61446 10.3856 7.29274 10.6666 7.99998 10.6666C8.70722 10.6666 9.3855 10.3856 9.8856 9.88554C10.3857 9.38544 10.6666 8.70716 10.6666 7.99992C10.6666 7.29267 10.3857 6.6144 9.8856 6.1143C9.3855 5.6142 8.70722 5.33325 7.99998 5.33325C7.29274 5.33325 6.61446 5.6142 6.11436 6.1143C5.61426 6.6144 5.33331 7.29267 5.33331 7.99992Z" fill="white"/>
</svg>