<svg width="20" height="22" viewBox="0 0 20 22" fill="none" xmlns="http://www.w3.org/2000/svg">
<path d="M13.25 16.4167V17.5C13.25 18.362 12.9076 19.1886 12.2981 19.7981C11.6886 20.4076 10.862 20.75 10 20.75C9.13806 20.75 8.31141 20.4076 7.70191 19.7981C7.09242 19.1886 6.75001 18.362 6.75001 17.5V16.4167M13.25 16.4167H6.75001M13.25 16.4167H17.1392C17.5541 16.4167 17.7621 16.4167 17.93 16.3603C18.088 16.3069 18.2314 16.2176 18.3492 16.0996C18.4671 15.9816 18.556 15.838 18.6093 15.68C18.6667 15.511 18.6667 15.303 18.6667 14.8848C18.6667 14.7018 18.6667 14.6108 18.6515 14.523C18.6248 14.3589 18.5607 14.2032 18.4641 14.068C18.4121 13.9954 18.3471 13.9304 18.2182 13.8015L17.7957 13.379C17.7283 13.3115 17.6749 13.2315 17.6384 13.1434C17.602 13.0553 17.5833 12.9608 17.5833 12.8655V8.83333C17.5833 7.83748 17.3872 6.85137 17.0061 5.93132C16.625 5.01127 16.0664 4.17528 15.3622 3.47111C14.6581 2.76693 13.8221 2.20834 12.902 1.82725C11.982 1.44615 10.9959 1.25 10 1.25C9.00415 1.25 8.01805 1.44615 7.09799 1.82725C6.17794 2.20834 5.34196 2.76693 4.63778 3.47111C3.93361 4.17528 3.37502 5.01127 2.99392 5.93132C2.61283 6.85137 2.41668 7.83748 2.41668 8.83333V12.8655C2.41674 12.9608 2.39803 13.0553 2.36159 13.1434C2.32516 13.2315 2.27173 13.3115 2.20434 13.379L1.78184 13.8015C1.65184 13.9315 1.58793 13.9954 1.53701 14.0669C1.43954 14.2023 1.37466 14.3584 1.34743 14.523C1.33334 14.6097 1.33334 14.7018 1.33334 14.8848C1.33334 15.303 1.33334 15.511 1.38968 15.68C1.44312 15.8383 1.53244 15.982 1.65064 16.1C1.76885 16.2181 1.91275 16.3071 2.07109 16.3603C2.23901 16.4167 2.44593 16.4167 2.86084 16.4167H6.75001" stroke="white" stroke-width="2" stroke-linecap="round" stroke-linejoin="round"/>
</svg>
