<svg width="26" height="22" viewBox="0 0 26 22" fill="none" stroke="#B1B1B1" xmlns="http://www.w3.org/2000/svg">
<path d="M18 6H23C23.3315 6 23.6495 6.1317 23.8839 6.36612C24.1183 6.60054 24.25 6.91848 24.25 7.25V21L20.0837 17.5388C19.8589 17.3521 19.5759 17.25 19.2838 17.25H9.25C8.91848 17.25 8.60054 17.1183 8.36612 16.8839C8.1317 16.6495 8 16.3315 8 16V12.25M18 6V2.25C18 1.91848 17.8683 1.60054 17.6339 1.36612C17.3995 1.1317 17.0815 1 16.75 1H3C2.66848 1 2.35054 1.1317 2.11612 1.36612C1.8817 1.60054 1.75 1.91848 1.75 2.25V16L5.91625 12.5375C6.14125 12.3525 6.42375 12.25 6.71625 12.25H8M18 6V11C18 11.3315 17.8683 11.6495 17.6339 11.8839C17.3995 12.1183 17.0815 12.25 16.75 12.25H8" stroke-width="2" stroke-linecap="round" stroke-linejoin="round"/>
</svg>
