<svg width="12" height="12" viewBox="0 0 12 12" fill="none" xmlns="http://www.w3.org/2000/svg">
<path d="M3.90038 10.3337C4.93103 10.9384 6.14206 11.1407 7.30806 10.9029C8.47406 10.665 9.51559 10.0033 10.2388 9.04093C10.962 8.07852 11.3176 6.88097 11.2394 5.67118C11.1612 4.46139 10.6545 3.32178 9.81369 2.46447C8.97287 1.60716 7.85518 1.09056 6.66865 1.01083C5.48212 0.931097 4.3076 1.29366 3.3637 2.03104C2.4198 2.76842 1.77083 3.83037 1.53758 5.01923C1.30434 6.20809 1.50271 7.44287 2.09577 8.49373L2.0974 8.49651C2.13718 8.56706 2.15734 8.60262 2.1666 8.63651C2.17532 8.66817 2.1775 8.69651 2.17532 8.72984C2.16869 8.77945 2.15587 8.82799 2.13718 8.87428L1.71872 10.156L1.71817 10.1576C1.6299 10.4282 1.58577 10.5632 1.61683 10.6532C1.64407 10.7321 1.70564 10.7937 1.78247 10.8221C1.87073 10.8537 2.00259 10.8093 2.26686 10.7193L2.27013 10.7182L3.5266 10.2909C3.59798 10.2665 3.63448 10.2543 3.66935 10.2521C3.69999 10.2496 3.73081 10.2528 3.76035 10.2615C3.80868 10.2798 3.8549 10.3035 3.8982 10.3321L3.90038 10.3337Z" stroke-linecap="round" stroke-linejoin="round"/>
</svg>
