<svg width="4" height="17" viewBox="0 0 4 17" fill="none" xmlns="http://www.w3.org/2000/svg">
<path d="M1.9 14.2C2.39706 14.2 2.8 14.6029 2.8 15.1C2.8 15.5971 2.39706 16 1.9 16C1.40294 16 1 15.5971 1 15.1C1 14.6029 1.40294 14.2 1.9 14.2Z" fill="black" stroke="black" stroke-width="1.5" stroke-linecap="round" stroke-linejoin="round"/>
<path d="M1.9 7.60002C2.39706 7.60002 2.8 8.00297 2.8 8.50002C2.8 8.99708 2.39706 9.40002 1.9 9.40002C1.40294 9.40002 1 8.99708 1 8.50002C1 8.00297 1.40294 7.60002 1.9 7.60002Z" fill="black" stroke="black" stroke-width="1.5" stroke-linecap="round" stroke-linejoin="round"/>
<path d="M1.9 0.999988C2.39706 0.999988 2.8 1.40293 2.8 1.89999C2.8 2.39704 2.39706 2.79999 1.9 2.79999C1.40294 2.79999 1 2.39704 1 1.89999C1 1.40293 1.40294 0.999988 1.9 0.999988Z" fill="black" stroke="black" stroke-width="1.5" stroke-linecap="round" stroke-linejoin="round"/>
</svg>
