<svg width="18" height="12" viewBox="0 0 18 12" fill="none" xmlns="http://www.w3.org/2000/svg">
<path fill-rule="evenodd" clip-rule="evenodd" d="M9.0937 3.9187C7.8937 3.9187 6.9187 4.8937 6.9187 6.0937C6.9187 7.2937 7.8937 8.2687 9.0937 8.2687C10.2937 8.2687 11.2687 7.2937 11.2687 6.0937C11.2687 4.8937 10.2937 3.9187 9.0937 3.9187Z" fill="#0E2B5A"/>
<path fill-rule="evenodd" clip-rule="evenodd" d="M9.09375 9.84373C6.99375 9.84373 5.34375 8.11873 5.34375 6.09373C5.34375 4.06873 7.06875 2.34373 9.09375 2.34373C11.1188 2.34373 12.8438 4.06873 12.8438 6.09373C12.8438 8.11873 11.1938 9.84373 9.09375 9.84373ZM17.3438 5.11873C15.3938 2.11873 12.3188 0.318726 9.09375 0.318726C5.86875 0.318726 2.79375 2.11873 0.84375 5.11873C0.46875 5.71873 0.46875 6.46873 0.84375 7.06873C2.79375 10.0687 5.86875 11.8687 9.09375 11.8687C12.3188 11.8687 15.3938 10.0687 17.3438 7.06873C17.7938 6.46873 17.7938 5.71873 17.3438 5.11873Z" fill="#0E2B5A"/>
</svg>
