<svg width="25" height="21" viewBox="0 0 25 21" fill="none" xmlns="http://www.w3.org/2000/svg">
<path d="M17.7229 0C15.4638 0 13.4858 0.971479 12.2529 2.61358C11.0199 0.971479 9.04198 0 6.78285 0C4.98455 0.00202691 3.26048 0.717297 1.98889 1.98889C0.717298 3.26048 0.00202691 4.98455 0 6.78285C0 14.4409 11.3547 20.6396 11.8383 20.8956C11.9657 20.9641 12.1082 21 12.2529 21C12.3976 21 12.5401 20.9641 12.6675 20.8956C13.1511 20.6396 24.5058 14.4409 24.5058 6.78285C24.5038 4.98455 23.7885 3.26048 22.5169 1.98889C21.2453 0.717297 19.5212 0.00202691 17.7229 0ZM12.2529 19.1233C10.2552 17.9592 1.75041 12.6566 1.75041 6.78285C1.75215 5.4487 2.28291 4.16969 3.2263 3.2263C4.16969 2.28291 5.4487 1.75215 6.78285 1.75041C8.9107 1.75041 10.6972 2.88381 11.4433 4.70423C11.5093 4.86476 11.6214 5.00205 11.7656 5.09868C11.9097 5.1953 12.0794 5.24689 12.2529 5.24689C12.4264 5.24689 12.596 5.1953 12.7402 5.09868C12.8843 5.00205 12.9965 4.86476 13.0625 4.70423C13.8086 2.88052 15.5951 1.75041 17.7229 1.75041C19.0571 1.75215 20.3361 2.28291 21.2795 3.2263C22.2229 4.16969 22.7536 5.4487 22.7554 6.78285C22.7554 12.6478 14.2484 17.9581 12.2529 19.1233Z" fill="#FF6584"/>
</svg>
