<svg width="26" height="22" viewBox="0 0 26 22" fill="none" xmlns="http://www.w3.org/2000/svg">
<path d="M12.5902 4.97749C12.7056 5.25928 12.9799 5.44337 13.2843 5.44337C13.5888 5.44337 13.8631 5.25928 13.9784 4.97749C14.8147 2.93464 16.8317 1.62518 19.2502 1.62518C20.7602 1.62518 22.2083 2.225 23.2759 3.29268C24.3436 4.36036 24.9434 5.80844 24.9434 7.31836C24.9434 9.08846 24.2451 10.8379 23.1317 12.4973C22.0195 14.1549 20.5224 15.6783 19.0012 16.9801C17.4831 18.2793 15.9612 19.3405 14.8171 20.0776C14.2458 20.4457 13.7705 20.7317 13.4394 20.925C13.3835 20.9576 13.3317 20.9876 13.2843 21.0149C13.2369 20.9876 13.1852 20.9576 13.1293 20.925C12.7982 20.7317 12.3229 20.4457 11.7516 20.0776C10.6075 19.3405 9.0856 18.2793 7.56743 16.9801C6.04631 15.6783 4.54919 14.1549 3.43696 12.4973C2.32356 10.8379 1.62524 9.08846 1.62524 7.31836C1.62524 5.80844 2.22506 4.36036 3.29274 3.29268C4.36042 2.225 5.8085 1.62518 7.31843 1.62518C9.73698 1.62518 11.754 2.93464 12.5902 4.97749Z" fill="white" stroke-width="1.5" stroke-linejoin="round"/>
</svg>