<svg width="20" height="21" viewBox="0 0 20 21" fill="none" xmlns="http://www.w3.org/2000/svg">
<path d="M19 10.2735V3.39316C19 2.8718 18.7893 2.37179 18.4142 2.00313C18.0391 1.63446 17.5304 1.42735 17 1.42735H3C2.46957 1.42735 1.96086 1.63446 1.58579 2.00313C1.21071 2.37179 1 2.8718 1 3.39316V14.2051M19 10.2735V17.1538C19 17.6752 18.7893 18.1752 18.4142 18.5439C18.0391 18.9125 17.5304 19.1197 17 19.1197H14M19 10.2735C12.558 10.2735 8.895 12.2246 6.945 14.444M1 14.2051V17.1538C1 17.6752 1.21071 18.1752 1.58579 18.5439C1.96086 18.9125 2.46957 19.1197 3 19.1197H14M1 14.2051C2.403 13.9751 4.637 13.9171 6.945 14.444M14 19.1197C12.296 16.399 9.573 15.0426 6.945 14.444M6.5 5.35898C6 5.35898 5 5.65385 5 6.83334C5 8.01282 6 8.30769 6.5 8.30769C7 8.30769 8 8.01282 8 6.83334C8 5.65385 7 5.35898 6.5 5.35898Z" stroke-width="2" stroke-linecap="round" stroke-linejoin="round"/>
</svg>
