<svg width="22" height="22" viewBox="0 0 22 22" fill="none" stroke="#B1B1B1" xmlns="http://www.w3.org/2000/svg">
<path d="M1 21H21M1 21V16L11 6L14.5863 2.41375L14.5875 2.4125C15.0812 1.91875 15.3288 1.67125 15.6138 1.57875C15.8648 1.49719 16.1352 1.49719 16.3862 1.57875C16.6712 1.67125 16.9175 1.91875 17.4112 2.41125L19.5863 4.58625C20.0813 5.08125 20.3288 5.32875 20.4213 5.61375C20.5028 5.86479 20.5028 6.13521 20.4213 6.38625C20.3288 6.67125 20.0813 6.91875 19.5863 7.41375L16 11.0013L11 6.00125M1 21H6L16 11" stroke-width="2" stroke-linecap="round" stroke-linejoin="round"/>
</svg>
