<svg width="22" height="26" viewBox="0 0 22 26" fill="none" xmlns="http://www.w3.org/2000/svg">
<path d="M21 24.25C21 20.7988 16.5225 18 11 18C5.4775 18 1 20.7988 1 24.25M11 14.25C9.3424 14.25 7.75269 13.5915 6.58058 12.4194C5.40848 11.2473 4.75 9.6576 4.75 8C4.75 6.3424 5.40848 4.75269 6.58058 3.58058C7.75269 2.40848 9.3424 1.75 11 1.75C12.6576 1.75 14.2473 2.40848 15.4194 3.58058C16.5915 4.75269 17.25 6.3424 17.25 8C17.25 9.6576 16.5915 11.2473 15.4194 12.4194C14.2473 13.5915 12.6576 14.25 11 14.25Z" stroke="#B1B1B1" stroke-width="2" stroke-linecap="round" stroke-linejoin="round"/>
</svg>
