<svg width="22" height="22" viewBox="0 0 22 22" fill="none" xmlns="http://www.w3.org/2000/svg">
<path d="M14.25 14.25L20.75 20.75M8.83333 16.4167C7.83748 16.4167 6.85137 16.2205 5.93132 15.8394C5.01127 15.4583 4.17528 14.8997 3.47111 14.1956C2.76693 13.4914 2.20834 12.6554 1.82725 11.7354C1.44615 10.8153 1.25 9.82919 1.25 8.83333C1.25 7.83748 1.44615 6.85137 1.82725 5.93132C2.20834 5.01127 2.76693 4.17528 3.47111 3.47111C4.17528 2.76693 5.01127 2.20835 5.93132 1.82725C6.85137 1.44615 7.83748 1.25 8.83333 1.25C10.8446 1.25 12.7734 2.04896 14.1956 3.47111C15.6177 4.89326 16.4167 6.82211 16.4167 8.83333C16.4167 10.8446 15.6177 12.7734 14.1956 14.1956C12.7734 15.6177 10.8446 16.4167 8.83333 16.4167Z" stroke="white" stroke-width="2" stroke-linecap="round" stroke-linejoin="round"/>
</svg>
