<svg
  className="ml-[2.25rem] mt-[1.06rem] grow"
  width="141"
  height="134"
  viewBox="0 0 141 134"
  fill="none"
  xmlns="http://www.w3.org/2000/svg"
>
  <g clip-path="url(#clip0_445_1368)">
    <path
      d="M130.296 35.6008V28.0771H129.127V35.6008C128.792 35.7366 128.514 35.9848 128.342 36.303C128.169 36.6211 128.113 36.9895 128.182 37.3448C128.251 37.7001 128.441 38.0203 128.72 38.2505C129 38.4808 129.35 38.6067 129.712 38.6067C130.073 38.6067 130.424 38.4808 130.703 38.2505C130.982 38.0203 131.173 37.7001 131.242 37.3448C131.311 36.9895 131.254 36.6211 131.082 36.303C130.909 35.9848 130.632 35.7366 130.296 35.6008Z"
      fill="#E6E6E6"
    />
    <path
      d="M133.024 111.529H125.036V14.4285H121.919V111.529H113.931C112.984 111.529 112.046 111.715 111.172 112.078C110.297 112.44 109.503 112.972 108.833 113.642C108.164 114.311 107.633 115.107 107.271 115.982C106.908 116.857 106.722 117.795 106.722 118.743L140.233 118.743C140.233 117.795 140.046 116.857 139.684 115.982C139.322 115.107 138.791 114.311 138.121 113.642C137.452 112.972 136.657 112.44 135.783 112.078C134.908 111.715 133.971 111.529 133.024 111.529Z"
      fill="#E6E6E6"
    />
    <path
      d="M106.738 28.857H140.216L138.169 3.2483C138.094 2.36526 137.692 1.54221 137.041 0.941072C136.391 0.339935 135.539 0.00422913 134.653 0H112.301C111.416 0.00422961 110.564 0.339935 109.913 0.941072C109.262 1.54221 108.86 2.36526 108.785 3.2483L106.738 28.857Z"
      fill="#FFECA8"
    />
    <path
      d="M11.9036 89.2103H114.088V78.7699C114.088 50.576 91.1678 27.6384 62.9957 27.6384C34.8235 27.6384 11.9036 50.576 11.9036 78.7699V89.2103Z"
      fill="#3F3D56"
    />
    <path
      opacity="0.2"
      d="M11.9036 89.2103H114.088V78.7699C114.088 50.576 91.1678 27.6384 62.9957 27.6384C34.8235 27.6384 11.9036 50.576 11.9036 78.7699V89.2103Z"
      fill="black"
    />
    <path
      d="M25.1471 92.8243H103.787C103.712 88.6838 102.017 84.7378 99.0665 81.8345C96.1158 78.9311 92.1447 77.3021 88.0067 77.2975H40.9271C36.7891 77.3021 32.8181 78.9311 29.8674 81.8345C26.9167 84.7378 25.2219 88.6838 25.1471 92.8243Z"
      fill="#89CFD3"
    />
    <path
      d="M15.7824 91.2181C24.4987 91.2181 31.5647 84.1466 31.5647 75.4236C31.5647 66.7005 24.4987 59.629 15.7824 59.629C7.066 59.629 0 66.7005 0 75.4236C0 84.1466 7.066 91.2181 15.7824 91.2181Z"
      fill="#3F3D56"
    />
    <path
      d="M111.547 91.2181C120.263 91.2181 127.329 84.1466 127.329 75.4236C127.329 66.7005 120.263 59.629 111.547 59.629C102.83 59.629 95.7642 66.7005 95.7642 75.4236C95.7642 84.1466 102.83 91.2181 111.547 91.2181Z"
      fill="#3F3D56"
    />
    <path
      d="M99.6429 83.4547V89.3441H26.7498V83.4547H10.4324V112.16C10.4324 113.919 11.1305 115.606 12.3732 116.849C13.6159 118.093 15.3013 118.792 17.0588 118.792H109.334C110.204 118.792 111.066 118.62 111.87 118.287C112.674 117.953 113.404 117.465 114.019 116.849C114.635 116.233 115.123 115.502 115.456 114.698C115.789 113.893 115.96 113.031 115.96 112.16V83.4547H99.6429Z"
      fill="#3F3D56"
    />
    <path
      opacity="0.2"
      d="M15.7824 78.636C17.5552 78.636 18.9923 77.1977 18.9923 75.4235C18.9923 73.6494 17.5552 72.2111 15.7824 72.2111C14.0095 72.2111 12.5724 73.6494 12.5724 75.4235C12.5724 77.1977 14.0095 78.636 15.7824 78.636Z"
      fill="black"
    />
    <path
      opacity="0.2"
      d="M111.547 78.636C113.319 78.636 114.756 77.1977 114.756 75.4235C114.756 73.6494 113.319 72.2111 111.547 72.2111C109.774 72.2111 108.337 73.6494 108.337 75.4235C108.337 77.1977 109.774 78.636 111.547 78.636Z"
      fill="black"
    />
    <path
      d="M68.8096 25.8342C68.8096 25.8342 69.1252 31.8346 71.3341 33.0978C73.5431 34.3611 71.3341 42.888 71.3341 42.888L60.9204 43.2039L60.2892 33.0978C60.2892 33.0978 61.5515 28.9923 60.9204 27.0974C60.2892 25.2025 68.8096 25.8342 68.8096 25.8342Z"
      fill="#FFB8B8"
    />
    <path
      d="M80.4856 109.209L76.6989 113.63L82.6947 119.315L85.8504 112.999L80.4856 109.209Z"
      fill="#FFB8B8"
    />
    <path
      d="M53.6622 109.209L57.4491 113.63L51.4532 119.315L48.2975 112.999L53.6622 109.209Z"
      fill="#FFB8B8"
    />
    <path
      d="M78.4345 67.3635C78.4345 67.3635 101.155 74.943 99.8932 82.2067C98.6309 89.4704 88.8482 115.051 88.8482 115.051C88.8482 115.051 83.4836 115.051 79.3812 109.367L82.2213 103.05C82.2213 103.05 80.959 99.5764 83.168 98.9448C85.377 98.3132 86.6393 87.2597 86.6393 87.2597C86.6393 87.2597 70.5452 85.9965 67.074 79.9961L60.7626 64.837L78.4345 67.3635Z"
      fill="#2F2E41"
    />
    <path
      d="M55.7135 67.3635C55.7135 67.3635 32.9925 74.943 34.2547 82.2067C35.517 89.4704 45.2997 115.051 45.2997 115.051C45.2997 115.051 50.6644 115.051 54.7668 109.367L51.9266 103.05C51.9266 103.05 53.1889 99.5764 50.9799 98.9448C48.7709 98.3132 47.5087 87.2597 47.5087 87.2597C47.5087 87.2597 63.6027 85.9965 67.074 79.9961L73.3853 64.837L55.7135 67.3635Z"
      fill="#2F2E41"
    />
    <path
      d="M81.5902 116.946C81.5902 116.946 84.7459 114.104 85.0614 116.314C85.377 118.525 84.7459 127.368 84.7459 127.368C84.7459 127.368 87.9016 134 83.168 134C78.4345 134 76.2255 128.947 76.8566 123.894C77.4878 118.841 74.6476 116.946 74.6476 116.946C74.6476 116.946 71.1764 109.998 74.6476 109.367C78.1189 108.735 79.3812 110.314 79.3812 110.314C79.3812 110.314 78.1189 115.999 81.5902 116.946Z"
      fill="#2F2E41"
    />
    <path
      d="M52.5578 116.946C52.5578 116.946 49.4021 114.104 49.0865 116.314C48.7709 118.525 49.4021 127.368 49.4021 127.368C49.4021 127.368 46.2464 134 50.9799 134C55.7135 134 57.9225 128.947 57.2913 123.894C56.6602 118.841 59.5003 116.946 59.5003 116.946C59.5003 116.946 62.9716 109.998 59.5003 109.367C56.029 108.735 54.7668 110.314 54.7668 110.314C54.7668 110.314 56.029 115.999 52.5578 116.946Z"
      fill="#2F2E41"
    />
    <path
      d="M63.9183 29.466C67.9268 29.466 71.1763 26.2139 71.1763 22.2023C71.1763 18.1907 67.9268 14.9386 63.9183 14.9386C59.9097 14.9386 56.6602 18.1907 56.6602 22.2023C56.6602 26.2139 59.9097 29.466 63.9183 29.466Z"
      fill="#FFB8B8"
    />
    <path
      d="M65.0228 34.6769L60.6048 31.203L49.8754 36.256L49.5598 64.9949C49.5598 64.9949 42.9329 68.1531 44.8263 72.2586C44.8263 72.2586 50.5066 73.5219 53.0311 76.0484C55.5557 78.5749 69.7563 75.1009 75.7521 73.2061C81.7479 71.3112 83.3258 69.1005 83.3258 69.1005L77.33 60.5736L80.8012 38.7825L70.0731 31.5641L65.0228 34.6769Z"
      fill="#E6E6E6"
    />
    <path
      d="M72.7423 17.2585C72.5841 17.0437 72.4396 16.8192 72.3096 16.5864C72.0845 16.0378 72.44 15.3914 72.1078 14.8792C71.7688 14.3563 70.9079 14.246 70.3223 13.8908C69.42 13.3436 69.256 12.2698 68.4107 11.6668C67.8016 11.2323 66.9331 11.1152 66.1192 11.1399C65.3053 11.1647 64.5023 11.312 63.688 11.3281C62.589 11.3527 61.4985 11.1295 60.4973 10.6751L61.0979 11.851C60.4305 11.7054 59.7928 11.4468 59.2124 11.0862C58.9467 11.4159 59.4328 11.9165 59.1314 12.2258C59.0079 12.3256 58.8617 12.3934 58.7058 12.4233C57.5472 12.7528 56.4563 13.2854 55.4837 13.9965C55.2586 14.1398 55.0724 14.3365 54.9416 14.5693C54.785 14.9165 54.9238 15.3 54.912 15.6692C54.8904 16.3401 54.3786 16.9251 54.0155 17.5295C53.6524 18.1338 53.4563 18.9173 53.9949 19.4303C54.1259 19.5344 54.2515 19.6453 54.3712 19.7624C54.9109 20.3994 53.9556 21.3323 54.416 22.0084C54.6159 22.3019 55.0257 22.4504 55.3818 22.6238C56.0639 22.943 56.6379 23.4549 57.0328 24.0965L56.7561 22.0631C56.7415 22.0129 56.7389 21.9599 56.7485 21.9085C56.7581 21.8571 56.7795 21.8086 56.8112 21.767C56.9452 21.6302 57.226 21.6847 57.4111 21.5942C57.6147 21.4945 57.6301 21.2659 57.622 21.0745L57.5597 19.5983C57.5316 18.9344 57.5239 18.8463 58.0124 18.3105C58.3537 17.9361 58.8906 17.7102 59.4298 17.5441C60.6622 17.1646 61.9877 17.0333 63.2978 16.9049C64.8192 16.7559 66.5324 16.0172 67.7139 16.8016C68.6811 17.4437 69.0027 18.4991 69.4687 19.4352C69.8876 20.2765 70.9626 22.7537 71.8576 21.4128C72.4197 20.5707 73.2793 18.1961 72.7423 17.2585Z"
      fill="#2F2E41"
    />
    <path
      d="M65.1643 20.0952C65.1344 20.0952 65.1057 20.1071 65.0846 20.1283C65.0634 20.1494 65.0515 20.1781 65.0515 20.208V23.2492C65.0515 23.2791 65.0634 23.3078 65.0846 23.3289C65.1057 23.3501 65.1344 23.362 65.1643 23.362H70.3954C70.4253 23.362 70.454 23.3501 70.4751 23.3289C70.4963 23.3078 70.5082 23.2791 70.5082 23.2492V20.208C70.5082 20.1781 70.4963 20.1494 70.4751 20.1283C70.454 20.1071 70.4253 20.0952 70.3954 20.0952L65.1643 20.0952Z"
      fill="#3F3D56"
    />
    <path
      d="M65.7489 20.3634C65.6932 20.3635 65.6397 20.3856 65.6003 20.4251C65.561 20.4645 65.5388 20.518 65.5387 20.5737V22.8835C65.5388 22.9392 65.561 22.9927 65.6003 23.0321C65.6397 23.0715 65.6932 23.0937 65.7489 23.0938H69.8108C69.8665 23.0937 69.9199 23.0715 69.9593 23.0321C69.9987 22.9927 70.0209 22.9392 70.021 22.8835V20.5737C70.0209 20.518 69.9987 20.4645 69.9593 20.4251C69.9199 20.3856 69.8665 20.3635 69.8108 20.3634H65.7489Z"
      fill="#FF6584"
    />
    <path
      d="M65.2231 21.097H62.4982V21.7286H65.2231V21.097Z"
      fill="#3F3D56"
    />
    <path
      d="M57.7567 20.0952C57.7268 20.0953 57.6981 20.1072 57.677 20.1283C57.6559 20.1495 57.644 20.1781 57.6439 20.208V23.2492C57.644 23.2791 57.6559 23.3077 57.677 23.3289C57.6981 23.35 57.7268 23.3619 57.7567 23.362H62.9879C63.0177 23.3619 63.0464 23.35 63.0675 23.3289C63.0886 23.3077 63.1005 23.2791 63.1006 23.2492V20.208C63.1005 20.1781 63.0886 20.1495 63.0675 20.1283C63.0464 20.1072 63.0177 20.0953 62.9879 20.0952L57.7567 20.0952Z"
      fill="#3F3D56"
    />
    <path
      d="M58.3413 20.3634C58.2856 20.3634 58.2322 20.3856 58.1928 20.425C58.1534 20.4645 58.1312 20.5179 58.1311 20.5737V22.8835C58.1312 22.9393 58.1534 22.9927 58.1928 23.0321C58.2322 23.0716 58.2856 23.0937 58.3413 23.0938H62.4032C62.4589 23.0937 62.5123 23.0716 62.5518 23.0321C62.5912 22.9927 62.6133 22.9393 62.6134 22.8835V20.5737C62.6133 20.5179 62.5912 20.4645 62.5518 20.425C62.5123 20.3856 62.4589 20.3634 62.4032 20.3634H58.3413Z"
      fill="#89CFD3"
    />
    <path
      d="M54.8971 58.0553H73.0163C73.7397 58.0553 74.4334 58.3429 74.945 58.8548C75.4565 59.3667 75.7439 60.0611 75.7439 60.785H52.1695C52.1695 60.0611 52.4568 59.3667 52.9684 58.8548C53.4799 58.3429 54.1737 58.0553 54.8971 58.0553Z"
      fill="#3F3D56"
    />
    <path
      d="M74.2826 57.8603C74.1766 57.8608 74.0713 57.8787 73.9711 57.9134C73.9367 57.775 73.8529 57.6539 73.7354 57.5731C73.6179 57.4923 73.4749 57.4573 73.3335 57.4747C73.192 57.4922 73.0618 57.5609 72.9674 57.6679C72.8731 57.7748 72.8212 57.9126 72.8214 58.0553C72.8214 58.0582 72.8221 58.0609 72.8222 58.0638C72.7491 58.0708 72.6771 58.0857 72.6073 58.1084C72.5875 58.0297 72.5516 57.9559 72.5018 57.8918C72.4521 57.8276 72.3896 57.7745 72.3183 57.7358C72.5056 57.6322 72.6537 57.4699 72.74 57.2739C72.8495 57.2848 72.9601 57.2725 73.0646 57.2378C73.169 57.203 73.265 57.1466 73.3462 57.0723C73.4274 56.9979 73.492 56.9072 73.5359 56.8062C73.5798 56.7052 73.6018 56.596 73.6007 56.4858C73.5996 56.3757 73.5753 56.267 73.5294 56.1669C73.4834 56.0668 73.417 55.9775 73.3342 55.9048C73.2515 55.8321 73.1544 55.7777 73.0493 55.7451C72.9441 55.7125 72.8333 55.7024 72.724 55.7155C72.618 55.716 72.5127 55.7339 72.4124 55.7686C72.3945 55.692 72.3611 55.6197 72.3145 55.5563C72.2678 55.4929 72.2088 55.4396 72.141 55.3996C72.0732 55.3596 71.998 55.3338 71.9199 55.3237C71.8419 55.3136 71.7626 55.3195 71.6868 55.3409C71.6111 55.3623 71.5405 55.3989 71.4793 55.4484C71.4181 55.4979 71.3675 55.5592 71.3306 55.6288C71.2937 55.6984 71.2714 55.7748 71.2648 55.8532C71.2582 55.9317 71.2676 56.0107 71.2924 56.0855C71.2691 56.1017 71.2473 56.1199 71.2256 56.138C71.1154 56.0431 70.9722 55.9955 70.8272 56.0053C70.7522 55.79 70.604 55.6079 70.4084 55.491C70.2128 55.3741 69.9823 55.3298 69.7574 55.3658C69.5324 55.4019 69.3273 55.516 69.1779 55.6882C69.0286 55.8604 68.9446 56.0797 68.9406 56.3077C68.8624 56.3139 68.7852 56.3293 68.7107 56.3536C68.7023 56.3206 68.691 56.2884 68.6771 56.2573C68.754 56.1894 68.8158 56.1061 68.8585 56.0128C68.9011 55.9194 68.9238 55.8182 68.9248 55.7155C68.9112 55.496 68.8113 55.2909 68.6471 55.1447C68.4828 54.9986 68.2675 54.9235 68.0481 54.9356C67.942 54.9361 67.8368 54.954 67.7365 54.9887C67.7185 54.912 67.6852 54.8398 67.6385 54.7764C67.5919 54.7129 67.5329 54.6596 67.4651 54.6197C67.3973 54.5797 67.322 54.5539 67.244 54.5438C67.1659 54.5337 67.0867 54.5396 67.0109 54.561C66.9352 54.5824 66.8646 54.619 66.8034 54.6685C66.7421 54.7179 66.6916 54.7793 66.6547 54.8489C66.6178 54.9185 66.5954 54.9948 66.5889 55.0733C66.5823 55.1518 66.5917 55.2308 66.6165 55.3056C66.4938 55.3908 66.3924 55.5032 66.3202 55.6341C66.2479 55.7649 66.2068 55.9107 66.2 56.06C66.1918 56.0673 66.1824 56.0732 66.1746 56.081C66.1891 56.0253 66.1967 55.9681 66.1972 55.9105C66.1835 55.691 66.0837 55.4858 65.9194 55.3397C65.7552 55.1936 65.5399 55.1184 65.3205 55.1306C65.2144 55.1311 65.1091 55.149 65.0089 55.1837C64.9909 55.107 64.9576 55.0348 64.9109 54.9714C64.8643 54.9079 64.8052 54.8546 64.7374 54.8146C64.6696 54.7747 64.5944 54.7489 64.5164 54.7388C64.4383 54.7287 64.359 54.7345 64.2833 54.756C64.2076 54.7774 64.137 54.8139 64.0757 54.8634C64.0145 54.9129 63.9639 54.9743 63.9271 55.0439C63.8902 55.1135 63.8678 55.1898 63.8612 55.2683C63.8547 55.3468 63.864 55.4258 63.8888 55.5005C63.7595 55.59 63.6538 55.7095 63.5807 55.8488C63.5077 55.9882 63.4696 56.1431 63.4696 56.3005C63.4696 56.4578 63.5077 56.6128 63.5807 56.7521C63.6538 56.8915 63.7595 57.011 63.8888 57.1004C63.8494 57.2137 63.8494 57.337 63.8888 57.4503C63.7912 57.5185 63.7067 57.6039 63.6396 57.7022C63.6035 57.5713 63.5227 57.4571 63.4113 57.3795C63.2999 57.3019 63.1648 57.2658 63.0296 57.2775C62.8943 57.2892 62.7675 57.348 62.671 57.4435C62.5745 57.5391 62.5145 57.6654 62.5014 57.8007C62.4233 57.7549 62.3389 57.7207 62.251 57.6994C62.4088 57.5951 62.5331 57.4474 62.6088 57.2739C62.7183 57.2848 62.8289 57.2725 62.9334 57.2378C63.0378 57.203 63.1338 57.1466 63.215 57.0723C63.2962 56.9979 63.3609 56.9072 63.4047 56.8062C63.4486 56.7052 63.4707 56.596 63.4695 56.4858C63.4684 56.3757 63.4441 56.267 63.3982 56.1669C63.3523 56.0668 63.2858 55.9775 63.2031 55.9048C63.1203 55.8321 63.0233 55.7777 62.9181 55.7451C62.813 55.7125 62.7021 55.7024 62.5928 55.7155C62.4868 55.716 62.3815 55.7339 62.2813 55.7686C62.2633 55.692 62.2299 55.6197 62.1833 55.5563C62.1366 55.4929 62.0776 55.4396 62.0098 55.3996C61.942 55.3596 61.8668 55.3338 61.7887 55.3237C61.7107 55.3136 61.6314 55.3195 61.5557 55.3409C61.4799 55.3623 61.4093 55.3989 61.3481 55.4484C61.2869 55.4979 61.2363 55.5592 61.1994 55.6288C61.1626 55.6984 61.1402 55.7748 61.1336 55.8532C61.127 55.9317 61.1364 56.0107 61.1612 56.0855C61.1487 56.0942 61.1374 56.1044 61.1254 56.1137C61.095 56.1108 61.0654 56.1055 61.0342 56.1055C60.9281 56.106 60.8229 56.1239 60.7226 56.1586C60.7189 56.1439 60.7129 56.1302 60.7081 56.116C60.727 56.0292 60.7255 55.9392 60.7037 55.8531C60.682 55.7669 60.6406 55.687 60.5828 55.6196C60.5249 55.5522 60.4523 55.4992 60.3705 55.4646C60.2888 55.43 60.2001 55.4149 60.1115 55.4204C60.0608 55.279 59.9781 55.1513 59.8698 55.0472C59.7616 54.9431 59.6307 54.8655 59.4875 54.8204C59.3443 54.7754 59.1926 54.7641 59.0443 54.7874C58.8961 54.8108 58.7552 54.8681 58.6327 54.955C58.5102 55.0419 58.4095 55.1559 58.3384 55.2882C58.2673 55.4205 58.2278 55.5675 58.2229 55.7177C58.2179 55.8678 58.2478 56.0171 58.3101 56.1537C58.3724 56.2904 58.4654 56.4108 58.582 56.5055C58.5149 56.5132 58.4488 56.5276 58.3847 56.5485C58.3616 56.4535 58.3149 56.3658 58.2489 56.2937C58.1829 56.2215 58.0997 56.1673 58.0071 56.136C57.9145 56.1047 57.8155 56.0973 57.7193 56.1146C57.6231 56.1319 57.5328 56.1733 57.4569 56.2349C57.3701 56.1317 57.2615 56.0491 57.1389 55.993C57.0163 55.9369 56.8827 55.9087 56.7479 55.9105C56.6419 55.911 56.5366 55.9289 56.4364 55.9636C56.4184 55.8869 56.385 55.8147 56.3384 55.7513C56.2917 55.6878 56.2327 55.6345 56.1649 55.5946C56.0971 55.5546 56.0219 55.5288 55.9438 55.5187C55.8658 55.5086 55.7865 55.5145 55.7108 55.5359C55.635 55.5573 55.5644 55.5939 55.5032 55.6434C55.442 55.6928 55.3914 55.7542 55.3545 55.8238C55.3177 55.8934 55.2953 55.9697 55.2887 56.0482C55.2821 56.1267 55.2915 56.2057 55.3163 56.2805C55.187 56.3699 55.0813 56.4895 55.0083 56.6288C54.9353 56.7681 54.8971 56.9231 54.8971 57.0804C54.8971 57.0834 54.8979 57.0862 54.8979 57.0892C54.7598 57.0683 54.6186 57.0835 54.4881 57.1335C54.4701 57.0568 54.4367 56.9846 54.3901 56.9212C54.3434 56.8577 54.2844 56.8044 54.2166 56.7644C54.1488 56.7245 54.0736 56.6987 53.9955 56.6886C53.9175 56.6785 53.8382 56.6843 53.7625 56.7058C53.6867 56.7272 53.6161 56.7637 53.5549 56.8132C53.4937 56.8627 53.4431 56.9241 53.4062 56.9937C53.3694 57.0633 53.347 57.1396 53.3404 57.2181C53.3338 57.2966 53.3432 57.3756 53.368 57.4503C53.1801 57.5776 53.0427 57.7668 52.9798 57.985C52.9168 58.2032 52.9323 58.4365 53.0235 58.6444C53.1146 58.8524 53.2757 59.0218 53.4788 59.1231C53.6818 59.2245 53.9139 59.2514 54.1347 59.1993C54.1699 59.4027 54.2689 59.5896 54.4174 59.7329C54.5659 59.8762 54.7561 59.9685 54.9606 59.9963C55.165 60.024 55.3729 59.9859 55.5542 59.8875C55.7355 59.789 55.8808 59.6353 55.9689 59.4486C56.6706 59.54 57.3829 59.5078 58.0735 59.3537C58.1379 59.5384 58.2565 59.6994 58.4138 59.8155C58.5711 59.9316 58.7598 59.9975 58.9551 60.0045C59.1505 60.0115 59.3434 59.9593 59.5086 59.8548C59.6738 59.7503 59.8037 59.5983 59.8812 59.4187C60.0232 59.4159 60.1628 59.3813 60.2898 59.3175C60.3787 59.4748 60.5097 59.6041 60.6681 59.6909C60.8264 59.7776 61.0058 59.8185 61.1861 59.8087C61.3664 59.799 61.5403 59.739 61.6884 59.6357C61.8365 59.5323 61.9528 59.3897 62.0243 59.2237C62.241 59.1826 62.4652 59.2188 62.6581 59.3259C62.8509 59.433 63.0001 59.6043 63.0799 59.8101C63.2102 59.6316 63.3778 59.4837 63.5711 59.3767C63.7644 59.2696 63.9786 59.206 64.199 59.1903C64.3948 59.2449 64.6029 59.2353 64.7928 59.1627C64.9827 59.0901 65.1443 58.9585 65.2539 58.7872C65.1927 59.0246 65.2231 59.2764 65.3392 59.4923C65.4553 59.7083 65.6485 59.8725 65.8802 59.9522C66.1119 60.0319 66.3651 60.0212 66.5893 59.9224C66.8136 59.8235 66.9923 59.6437 67.0899 59.4187C67.2319 59.4159 67.3715 59.3813 67.4985 59.3175C67.5874 59.4748 67.7184 59.6041 67.8768 59.6909C68.0351 59.7776 68.2145 59.8185 68.3948 59.8087C68.5751 59.799 68.7491 59.739 68.8971 59.6357C69.0452 59.5323 69.1615 59.3897 69.233 59.2237C69.375 59.2209 69.5147 59.1864 69.6416 59.1226C69.7101 59.2447 69.8044 59.3505 69.9179 59.4325C70.0314 59.5146 70.1614 59.5709 70.2989 59.5975C70.4363 59.6242 70.5779 59.6206 70.7138 59.5869C70.8497 59.5533 70.9766 59.4904 71.0858 59.4027C71.1196 59.5892 71.2073 59.7617 71.3379 59.899C71.4686 60.0362 71.6366 60.1322 71.8211 60.175C72.0056 60.2178 72.1986 60.2056 72.3763 60.1399C72.554 60.0743 72.7086 59.958 72.821 59.8054C72.9379 59.895 73.0737 59.9568 73.2182 59.986C73.3626 60.0151 73.5117 60.0109 73.6542 59.9736C73.7968 59.9363 73.9289 59.8669 74.0406 59.7708C74.1522 59.6746 74.2405 59.5542 74.2986 59.4187C74.4081 59.4296 74.5187 59.4173 74.6232 59.3825C74.7276 59.3478 74.8236 59.2914 74.9048 59.217C74.986 59.1427 75.0506 59.052 75.0945 58.951C75.1384 58.8499 75.1604 58.7408 75.1593 58.6306C75.1582 58.5205 75.1339 58.4118 75.088 58.3117C75.042 58.2115 74.9756 58.1222 74.8928 58.0495C74.8101 57.9769 74.713 57.9224 74.6079 57.8898C74.5027 57.8572 74.3919 57.8472 74.2826 57.8603ZM56.8691 57.4579C56.8681 57.4626 56.8674 57.4674 56.8664 57.4722C56.8593 57.4719 56.8526 57.4704 56.8454 57.4704C56.8163 57.4711 56.7872 57.474 56.7586 57.4791C56.7601 57.4756 56.7624 57.4725 56.7639 57.4689C56.7991 57.4672 56.8343 57.4635 56.8691 57.4579ZM65.0089 57.1335C65.0061 57.1221 65.0012 57.1117 64.9977 57.1006C65.1465 56.9974 65.2637 56.8549 65.3364 56.689C65.4645 56.6883 65.5911 56.6606 65.7078 56.6078C65.8245 56.5549 65.9288 56.478 66.0138 56.382C66.0063 56.4194 66.0025 56.4574 66.0024 56.4955C66.0032 56.555 66.0132 56.614 66.032 56.6704C65.8647 56.7871 65.738 56.9533 65.6698 57.1456C65.4579 57.0631 65.2236 57.0588 65.0089 57.1335ZM70.8441 57.2062C70.8437 57.1942 70.8452 57.1819 70.8444 57.1701C70.8693 57.17 70.8941 57.1683 70.9187 57.165C70.9565 57.2912 71.0196 57.4083 71.1043 57.5091C71.0859 57.5143 71.0665 57.5174 71.0486 57.5234C71.0172 57.3981 70.9453 57.2866 70.8441 57.2062Z"
      fill="#F9A825"
    />
    <path
      d="M54.132 59.0302C53.8557 59.0302 53.5822 59.0865 53.3283 59.1957C53.0745 59.305 52.8455 59.4649 52.6554 59.6656C52.4653 59.8663 52.3181 60.1037 52.2227 60.3633C52.1273 60.6229 52.0857 60.8992 52.1006 61.1754L53.4199 79.331C53.4477 79.8513 53.6739 80.3412 54.0518 80.6997C54.4297 81.0582 54.9306 81.258 55.4513 81.2579H72.462C72.9827 81.258 73.4836 81.0582 73.8616 80.6997C74.2395 80.3412 74.4656 79.8513 74.4935 79.331L75.8127 61.1754C75.8276 60.8992 75.7861 60.6229 75.6907 60.3633C75.5953 60.1037 75.4481 59.8663 75.258 59.6656C75.0679 59.4649 74.8389 59.305 74.585 59.1957C74.3311 59.0865 74.0577 59.0302 73.7813 59.0302H54.132Z"
      fill="#3F3D56"
    />
    <path
      d="M56.2609 59.0302H55.0919V81.2579H56.2609V59.0302Z"
      fill="#89CFD3"
    />
    <path
      d="M59.573 59.0302H58.404V81.2579H59.573V59.0302Z"
      fill="#89CFD3"
    />
    <path
      d="M62.8851 59.0302H61.7161V81.2579H62.8851V59.0302Z"
      fill="#89CFD3"
    />
    <path
      d="M66.1972 59.0302H65.0283V81.2579H66.1972V59.0302Z"
      fill="#89CFD3"
    />
    <path
      d="M69.5093 59.0302H68.3404V81.2579H69.5093V59.0302Z"
      fill="#89CFD3"
    />
    <path
      d="M72.8214 59.0302H71.6525V81.2579H72.8214V59.0302Z"
      fill="#89CFD3"
    />
    <path
      d="M71.6497 70.0479L67.8629 72.2586C67.8629 72.2586 58.7114 79.8381 65.0227 81.1013C71.3341 82.3646 72.912 75.7325 72.912 75.7325L75.121 73.206L71.6497 70.0479Z"
      fill="#FFB8B8"
    />
    <path
      d="M53.6622 68.4689L57.4491 70.6796C57.4491 70.6796 66.6006 78.2591 60.2892 79.5223C53.9778 80.7856 52.4 74.1535 52.4 74.1535L50.191 71.627L53.6622 68.4689Z"
      fill="#FFB8B8"
    />
    <path
      d="M76.6988 38.4667L80.8012 38.7825C80.8012 38.7825 83.9569 41.6248 83.6414 45.4146C83.6414 45.4146 86.4815 53.6257 85.8503 57.0996C85.8503 57.0996 86.4815 62.7842 85.5348 64.9949C84.5881 67.2056 76.6988 75.7326 76.6988 75.7326C76.6988 75.7326 69.4407 70.0479 69.7563 69.7321L79.2234 60.2578L74.4898 53.9415L76.6988 38.4667Z"
      fill="#E6E6E6"
    />
    <path
      d="M49.8754 36.256L49.7177 36.4139C49.7177 36.4139 42.6173 39.4141 42.9329 43.2039C42.9329 43.2039 40.0928 51.415 40.7239 54.8889C40.7239 54.8889 40.0928 60.5736 41.0395 62.7843C41.9862 64.995 49.8754 73.5219 49.8754 73.5219C49.8754 73.5219 57.1335 67.8373 56.818 67.5214L47.3509 58.0471L52.0844 51.7308L49.8754 36.256Z"
      fill="#E6E6E6"
    />
  </g>
  <defs>
    <clipPath id="clip0_445_1368">
      <rect width="140.233" height="134" fill="white" />
    </clipPath>
  </defs>
</svg>